<?xml version="1.0" standalone="no"?>
<!DOCTYPE svg PUBLIC "-//W3C//DTD SVG 20010904//EN"
 "http://www.w3.org/TR/2001/REC-SVG-20010904/DTD/svg10.dtd">
<svg version="1.0" xmlns="http://www.w3.org/2000/svg"
 width="695.000000pt" height="220.000000pt" viewBox="0 0 695.000000 220.000000"
 preserveAspectRatio="xMidYMid meet">

<g transform="translate(0.000000,220.000000) scale(0.100000,-0.100000)"
fill="#000000" stroke="none">
<path d="M1150 1195 l0 -605 975 0 975 0 0 605 0 605 -975 0 -975 0 0 -605z
m460 430 l0 -65 -110 0 -110 0 0 -240 0 -240 45 0 45 0 0 -65 0 -65 -45 0 -45
0 0 -120 0 -120 -65 0 -65 0 0 490 0 490 175 0 175 0 0 -65z m190 -425 l0
-490 -60 0 -60 0 0 490 0 490 60 0 60 0 0 -490z m190 60 l0 -430 110 0 110 0
0 -60 0 -60 -170 0 -170 0 0 490 0 490 60 0 60 0 0 -430z m547 420 c26 -6 59
-19 72 -29 24 -19 25 -18 63 6 78 52 211 28 270 -49 45 -59 48 -89 48 -505 l0
-393 -60 0 -59 0 -3 399 -3 399 -24 26 c-31 33 -85 35 -118 4 l-23 -21 0 -404
0 -403 -65 0 -65 0 0 400 0 401 -25 24 c-26 26 -72 33 -105 15 -36 -19 -40
-61 -40 -456 l0 -384 -60 0 -60 0 0 408 c0 374 2 410 19 448 21 46 81 98 131
112 47 14 52 14 107 2z"/>
<path d="M3220 1200 l0 -490 60 0 60 0 0 120 0 120 50 0 50 0 0 65 0 65 -50 0
-50 0 0 240 0 240 110 0 110 0 0 65 0 65 -170 0 -170 0 0 -490z"/>
<path d="M3630 1200 l0 -490 175 0 175 0 0 60 0 60 -110 0 -110 0 0 430 0 430
-65 0 -65 0 0 -490z"/>
<path d="M4204 1680 c-53 -12 -103 -49 -132 -98 l-27 -47 -3 -412 -3 -413 65
0 66 0 0 120 0 120 85 0 85 0 0 -120 0 -120 60 0 60 0 0 408 c0 374 -2 410
-19 448 -23 51 -81 99 -137 113 -48 12 -55 12 -100 1z m98 -134 c32 -24 38
-65 38 -267 l0 -199 -85 0 -85 0 0 215 c0 216 0 216 25 240 27 28 79 33 107
11z"/>
<path d="M4737 1680 c-44 -11 -80 -32 -125 -74 -50 -46 -74 -101 -80 -179 -4
-60 -2 -73 27 -131 48 -98 118 -146 236 -161 33 -4 73 -14 88 -23 65 -39 89
-136 51 -203 -25 -45 -102 -84 -147 -75 -71 14 -115 59 -132 139 -5 26 -8 27
-65 27 -60 0 -60 0 -60 -30 0 -53 39 -138 85 -184 101 -100 274 -102 375 -4
115 111 120 279 12 391 -50 53 -100 76 -181 86 -81 10 -102 20 -137 66 -20 26
-26 47 -27 83 -2 120 118 190 223 131 41 -23 58 -48 69 -100 7 -34 7 -34 70
-37 l64 -3 -6 50 c-19 157 -184 270 -340 231z"/>
<path d="M5150 1200 l0 -490 60 0 60 0 0 210 0 210 39 0 c28 0 49 -8 71 -26
55 -47 60 -68 60 -239 l0 -155 66 0 67 0 -5 173 c-5 189 -12 217 -68 280 l-32
37 26 25 c57 53 70 103 74 293 l4 172 -66 0 -66 0 0 -158 c0 -134 -3 -162 -19
-192 -21 -40 -83 -80 -123 -80 l-28 0 0 215 0 215 -60 0 -60 0 0 -490z"/>
<path d="M3403 447 c-49 -22 -40 -66 18 -92 64 -29 44 -83 -22 -58 -23 9 -29
8 -29 -2 0 -28 79 -35 104 -9 32 31 14 66 -46 92 -18 7 -28 19 -28 33 0 19 4
21 40 16 46 -6 53 6 13 21 -18 6 -36 6 -50 -1z"/>
<path d="M3624 449 c-53 -19 -72 -104 -33 -153 28 -36 80 -36 108 0 23 29 28
92 11 124 -13 23 -59 39 -86 29z m64 -44 c25 -54 2 -115 -42 -115 -32 0 -51
25 -51 70 0 46 19 70 55 70 19 0 30 -7 38 -25z"/>
<path d="M1990 440 c0 -5 14 -10 30 -10 l30 0 0 -80 c0 -47 4 -80 10 -80 6 0
10 33 10 80 0 79 0 80 25 80 14 0 25 5 25 10 0 6 -28 10 -65 10 -37 0 -65 -4
-65 -10z"/>
<path d="M2160 360 c0 -53 4 -90 10 -90 6 0 10 16 10 35 0 27 4 35 18 35 10 0
26 -15 36 -35 11 -19 26 -35 33 -35 11 0 10 8 -7 35 l-21 34 22 30 c21 29 21
31 5 55 -14 22 -24 26 -61 26 l-45 0 0 -90z m85 40 c0 -21 -5 -26 -32 -28 -31
-3 -33 -1 -33 28 0 29 2 31 33 28 27 -2 32 -7 32 -28z"/>
<path d="M2345 438 c-11 -29 -55 -162 -55 -165 0 -2 5 -3 10 -3 6 0 15 11 20
25 8 20 16 25 44 25 28 0 35 -4 40 -25 4 -14 13 -25 20 -25 11 0 8 20 -16 90
-19 58 -35 90 -44 90 -8 0 -17 -6 -19 -12z m44 -90 c1 -5 -11 -8 -25 -8 -24 0
-25 2 -19 33 11 50 18 54 31 16 7 -18 13 -37 13 -41z"/>
<path d="M2471 424 c-44 -56 -13 -154 49 -154 33 0 60 9 60 20 0 5 -17 6 -38
3 -47 -6 -65 12 -65 67 0 50 18 72 57 70 46 -3 53 -1 36 10 -30 19 -77 11 -99
-16z"/>
<path d="M2620 360 c0 -53 4 -90 10 -90 6 0 10 12 10 28 1 24 20 62 31 62 3 0
15 -20 29 -45 14 -25 31 -45 38 -45 9 0 3 18 -18 55 l-32 56 27 34 c37 49 10
43 -36 -7 l-38 -43 -1 43 c0 23 -4 42 -10 42 -6 0 -10 -37 -10 -90z"/>
<path d="M2830 360 c0 -73 3 -90 15 -90 11 0 15 11 15 40 0 39 1 40 35 40 19
0 35 5 35 10 0 6 -16 10 -35 10 -32 0 -35 2 -35 30 0 28 2 30 40 30 22 0 40 5
40 10 0 6 -25 10 -55 10 l-55 0 0 -90z"/>
<path d="M2970 360 c0 -53 4 -90 10 -90 6 0 10 37 10 90 0 53 -4 90 -10 90 -6
0 -10 -37 -10 -90z"/>
<path d="M3040 360 l0 -90 50 0 c28 0 50 5 50 10 0 6 -16 10 -35 10 l-35 0 0
80 c0 64 -3 80 -15 80 -12 0 -15 -17 -15 -90z"/>
<path d="M3180 360 c0 -102 17 -124 22 -27 l3 62 18 -52 c10 -29 22 -53 27
-53 7 0 31 55 52 120 3 8 3 -20 0 -62 -4 -67 -2 -78 12 -78 14 0 16 13 16 91
0 78 -2 90 -16 87 -9 -2 -26 -29 -39 -63 l-23 -60 -15 36 c-9 19 -19 47 -22
62 -4 15 -13 27 -21 27 -11 0 -14 -20 -14 -90z"/>
<path d="M3760 360 c0 -108 18 -122 22 -17 l3 72 40 -72 c22 -40 46 -73 53
-73 9 0 12 25 12 90 0 53 -4 90 -10 90 -6 0 -10 -31 -10 -72 l0 -73 -41 73
c-56 99 -69 96 -69 -18z"/>
<path d="M3980 440 c0 -5 11 -10 25 -10 25 0 25 -1 25 -80 0 -64 3 -80 15 -80
12 0 15 16 15 80 0 79 0 80 25 80 14 0 25 5 25 10 0 6 -28 10 -65 10 -37 0
-65 -4 -65 -10z"/>
<path d="M4140 360 c0 -73 3 -90 15 -90 11 0 15 11 15 40 l0 40 40 0 40 0 0
-40 c0 -22 5 -40 10 -40 6 0 10 37 10 90 0 53 -4 90 -10 90 -5 0 -10 -16 -10
-35 0 -34 -1 -35 -40 -35 -39 0 -40 1 -40 35 0 24 -5 35 -15 35 -12 0 -15 -17
-15 -90z"/>
<path d="M4320 360 l0 -90 55 0 c30 0 55 5 55 10 0 6 -18 10 -40 10 -38 0 -40
2 -40 29 0 26 4 30 33 33 17 2 32 8 32 13 0 6 -15 11 -32 13 -27 3 -33 7 -33
28 0 21 4 24 40 24 22 0 40 5 40 10 0 6 -25 10 -55 10 l-55 0 0 -90z"/>
<path d="M4548 440 c-27 -16 -41 -74 -28 -115 13 -38 35 -55 74 -55 45 0 56
10 56 51 0 37 -2 39 -31 39 -17 0 -28 -4 -24 -10 3 -5 13 -10 21 -10 8 0 14
-10 14 -25 0 -21 -5 -25 -28 -25 -38 0 -62 28 -62 73 0 45 23 69 64 67 46 -3
53 -1 36 10 -19 12 -70 12 -92 0z"/>
<path d="M4706 428 c-24 -38 -28 -67 -16 -103 13 -39 35 -55 78 -55 43 0 67
32 67 90 0 62 -23 90 -76 90 -29 0 -42 -6 -53 -22z m92 -10 c15 -15 16 -82 2
-109 -13 -23 -47 -25 -72 -2 -20 18 -24 73 -8 104 12 22 59 26 78 7z"/>
</g>
</svg>
