<svg xmlns="http://www.w3.org/2000/svg" width="927" height="293" viewBox="0 0 927 293" version="1.1"><path d="" stroke="none" fill="#000000" fill-rule="evenodd"/><path d="M 153 134 L 153 215 283.500 215 L 414 215 414 134 L 414 53 283.500 53 L 153 53 153 134 M 168 133 L 168 198 176.500 198 L 185 198 185 182 L 185 166 191 166 L 197 166 197 158 L 197 150 191 150 L 185 150 185 117.500 L 185 85 199.500 85 L 214 85 214 76.500 L 214 68 191 68 L 168 68 168 133 M 224 133 L 224 198 232 198 L 240 198 240 133 L 240 68 232 68 L 224 68 224 133 M 250 133 L 250 198 272 198 L 294 198 294 190.500 L 294 183 279.500 183 L 265 183 265 125.500 L 265 68 257.500 68 L 250 68 250 133 M 429 133.500 L 429 199 437.500 199 L 446 199 446 183 L 446 167 452.500 167 L 459 167 459 158 L 459 149 452.500 149 L 446 149 446 117.500 L 446 86 460.500 86 L 475 86 475 77 L 475 68 452 68 L 429 68 429 133.500 M 484 133.500 L 484 199 507.500 199 L 531 199 531 190.500 L 531 182 516.500 182 L 502 182 502 125 L 502 68 493 68 L 484 68 484 133.500 M 556.632 70.460 C 549.818 73.261, 547.152 75.542, 542.591 82.470 L 539.280 87.500 538.578 143.250 L 537.877 199 546.939 199 L 556 199 556 183 L 556 167 567 167 L 578 167 578 183 L 578 199 586.568 199 L 595.136 199 594.818 143.750 L 594.500 88.500 591.893 83.500 C 587.398 74.881, 576.088 67.968, 566.572 68.024 C 564.332 68.037, 559.860 69.133, 556.632 70.460 M 630.500 69.392 C 624.721 71.211, 622.163 72.711, 616.102 77.840 C 608.394 84.362, 604.737 92.461, 604.173 104.260 C 603.779 112.508, 603.946 113.448, 606.861 119.370 C 610.959 127.694, 617.078 134.499, 623.299 137.651 C 626.074 139.058, 632.653 141.075, 637.920 142.134 C 643.186 143.194, 649.065 144.876, 650.985 145.872 C 658.881 149.970, 662.204 164.682, 656.967 172.359 C 654.131 176.516, 644.644 182.011, 640.360 181.978 C 632.499 181.918, 624.621 174.983, 621.628 165.490 L 619.898 160 611.829 160 L 603.760 160 604.182 165.835 C 605.034 177.615, 613.466 189.642, 624.779 195.213 C 630.830 198.193, 632.296 198.500, 640.477 198.500 C 648.158 198.500, 650.344 198.104, 655.175 195.840 C 670.706 188.559, 679.270 173.033, 676.917 156.421 C 675.801 148.536, 673.588 143.982, 667.679 137.410 C 661.575 130.621, 654.962 127.233, 644.283 125.423 C 633.148 123.536, 630.786 122.574, 626.539 118.202 C 620.766 112.258, 619.992 101.901, 624.722 93.893 C 627.054 89.945, 634.785 86, 640.189 86 C 645.366 86, 653.830 89.861, 655.874 93.154 C 656.629 94.372, 658.018 97.637, 658.961 100.410 C 660.925 106.190, 662.033 106.747, 671.886 106.900 L 678.272 107 677.673 102.750 C 675.898 90.142, 670.316 80.886, 660.596 74.432 C 651.667 68.504, 639.695 66.499, 630.500 69.392 M 686 133.500 L 686 199 694.500 199 L 703 199 703 171 L 703 143 707.300 143 C 713.223 143, 719.380 147.108, 722.272 152.991 C 724.301 157.118, 724.519 159.256, 724.846 178.250 L 725.202 199 734.101 199 L 743 199 742.966 184.750 C 742.922 166.063, 741.509 150.903, 739.427 146.788 C 738.513 144.980, 735.945 141.115, 733.722 138.201 L 729.681 132.901 733.799 128.701 C 736.064 126.390, 738.635 122.475, 739.513 120 C 741.564 114.216, 742.924 99.157, 742.966 81.750 L 743 68 734 68 L 725 68 724.940 85.750 C 724.873 105.938, 724.141 111.987, 721.305 115.812 C 718.173 120.035, 711.720 124.094, 707.166 124.705 L 703 125.263 703 96.632 L 703 68 694.500 68 L 686 68 686 133.500 M 322.679 70.482 C 317.162 72.594, 311.367 77.518, 308.361 82.647 C 306.029 86.627, 305.661 88.625, 304.929 101.302 C 304.478 109.111, 304.085 134.063, 304.055 156.750 L 304 198 312 198 L 320 198 320 148.549 C 320 97.063, 320.431 90.730, 324.167 87.349 C 327.440 84.387, 334.802 84.849, 339.328 88.301 L 343 91.102 343 144.551 L 343 198 351.491 198 L 359.983 198 360.241 143.790 L 360.500 89.579 363.898 87.290 C 369.332 83.628, 375.669 84.663, 380.502 90.002 C 382.437 92.139, 382.511 93.878, 382.834 145.104 L 383.167 198 390.660 198 L 398.152 198 397.765 144.250 C 397.326 83.284, 397.470 84.453, 389.494 77.101 C 383.366 71.453, 378.878 69.727, 370 69.604 C 363.554 69.515, 361.814 69.887, 357.624 72.250 C 351.629 75.631, 351.178 75.635, 344.918 72.362 C 338.713 69.117, 328.498 68.254, 322.679 70.482 M 561.775 87.559 C 556.871 90.220, 556.640 91.610, 556.184 121.250 L 555.756 149 566.878 149 L 578 149 578 124.549 C 578 97.349, 577.191 91.082, 573.284 88.009 C 570.294 85.657, 565.617 85.474, 561.775 87.559 M 266.250 233.662 C 263.644 234.714, 265.156 236, 269 236 L 273 236 273 245.418 C 273 250.598, 273.272 255.546, 273.605 256.412 C 274.906 259.804, 276.001 256.523, 276.014 249.191 C 276.032 238.999, 276.577 237.343, 280.350 236.027 C 282.876 235.146, 283.203 234.740, 282 233.980 C 280.457 233.003, 268.481 232.762, 266.250 233.662 M 288.219 245.003 C 288.386 252.126, 288.907 257.019, 289.500 257.037 C 290.050 257.053, 290.725 255.368, 291 253.293 C 291.687 248.110, 294.008 247.962, 297.419 252.884 C 302.133 259.685, 305.573 259.360, 301.549 252.493 L 299.101 248.316 301.550 244.711 C 304.625 240.186, 304.625 238.534, 301.545 235.455 C 299.526 233.435, 298.102 233, 293.515 233 L 287.938 233 288.219 245.003 M 311.208 238.250 C 307.076 249.459, 304.824 257.157, 305.483 257.814 C 305.862 258.191, 307.527 256.813, 309.183 254.750 C 313.319 249.599, 318.812 249.554, 320.403 254.658 C 320.773 255.844, 321.734 257.068, 322.538 257.376 C 324.825 258.254, 324.360 254.214, 321.055 244.496 C 316.521 231.168, 314.331 229.779, 311.208 238.250 M 332.241 234.271 C 328.453 236.466, 326.615 240.034, 326.615 245.198 C 326.615 253.447, 332.313 258.735, 339.574 257.226 C 345.409 256.014, 345.147 254, 339.155 254 C 332.576 254, 330.995 252.384, 331.015 245.679 C 331.024 242.830, 331.370 239.966, 331.786 239.313 C 332.846 237.645, 337.553 236, 341.265 236 C 343.508 236, 344.093 235.693, 343.321 234.921 C 341.623 233.223, 334.746 232.819, 332.241 234.271 M 349.476 235.250 C 348.566 238.893, 349.408 256.308, 350.512 256.673 C 351.068 256.857, 352.193 254.679, 353.012 251.833 C 353.830 248.987, 354.950 246.524, 355.500 246.360 C 356.050 246.196, 357.990 248.523, 359.812 251.531 C 361.633 254.539, 363.770 257, 364.562 257 C 366.576 257, 366.402 256.330, 362.518 249.122 L 359.080 242.743 362.137 238.301 C 363.818 235.858, 364.938 233.605, 364.628 233.294 C 363.708 232.374, 359.338 235.690, 356.408 239.532 C 353.282 243.630, 352.040 242.843, 352.015 236.750 C 351.999 232.639, 350.369 231.676, 349.476 235.250 M 377 244.334 C 377 252.946, 377.347 256.043, 378.411 256.926 C 380.238 258.443, 381.241 256.912, 381.965 251.500 C 382.471 247.716, 382.711 247.473, 386.422 247 C 391.952 246.295, 392.209 244.199, 386.813 243.811 C 382.610 243.508, 382.500 243.411, 382.500 240 C 382.500 236.527, 382.537 236.498, 387.314 236.193 C 394.927 235.706, 392.661 233.554, 384.170 233.206 L 377 232.912 377 244.334 M 396.719 233.615 C 395.710 234.624, 395.848 255.211, 396.874 256.831 C 398.114 258.787, 399.014 253.228, 398.930 244.125 C 398.858 236.356, 398.010 232.323, 396.719 233.615 M 405.607 234.582 C 405.273 235.452, 405 241.138, 405 247.219 L 405 258.274 411.556 257.748 C 420.723 257.012, 421.943 255.339, 414.083 254.284 L 410 253.737 410 248.008 C 410 239.457, 408.912 233, 407.471 233 C 406.780 233, 405.941 233.712, 405.607 234.582 M 424.432 234.318 C 424.154 235.042, 424.055 240.330, 424.213 246.068 C 424.519 257.185, 426.129 260.191, 427.022 251.311 C 427.692 244.652, 428.397 244.043, 429.844 248.875 C 430.485 251.013, 431.654 253.298, 432.442 253.952 C 434.030 255.270, 435.487 253.099, 438.116 245.500 L 439.500 241.500 440 249.500 C 440.389 255.722, 440.833 257.500, 442 257.500 C 443.229 257.500, 443.551 255.439, 443.784 246.084 C 444.189 229.826, 441.885 228.720, 436.113 242.401 L 433.236 249.220 430.985 242.360 C 429.747 238.587, 428.289 234.938, 427.744 234.250 C 426.462 232.630, 425.068 232.658, 424.432 234.318 M 451.174 235.314 C 447.399 239.333, 447.727 239.924, 458.417 248.378 C 460.484 250.012, 461.137 251.202, 460.655 252.456 C 460.072 253.977, 459.200 254.130, 454.488 253.542 C 450.106 252.994, 449 253.140, 449 254.268 C 449 255.661, 452.961 258.005, 455.297 257.994 C 459.087 257.977, 463.791 255.755, 464.819 253.497 C 466.484 249.843, 464.707 246.833, 458.873 243.426 C 455.207 241.285, 453.997 240.015, 454.211 238.533 C 454.455 236.841, 455.140 236.579, 458.648 236.835 C 463.259 237.172, 465.119 235.669, 462.094 234.050 C 458.648 232.206, 453.539 232.798, 451.174 235.314 M 480.360 234.460 C 475.343 237.974, 474.533 249.745, 478.982 254.481 C 483.555 259.349, 490.466 258.564, 493.996 252.775 C 495.981 249.519, 496.745 241.105, 495.379 237.545 C 493.845 233.548, 484.425 231.613, 480.360 234.460 M 502.030 234.944 C 500.926 237.007, 500.600 252.793, 501.607 255.418 C 502.924 258.849, 503.852 256.619, 504.539 248.376 L 505.257 239.752 508.219 245.273 C 509.849 248.309, 512.478 252.302, 514.062 254.147 C 516.472 256.953, 517.107 257.256, 517.956 256 C 519.045 254.389, 519.397 237.199, 518.395 234.588 C 517.044 231.066, 515.998 234.612, 515.972 242.809 L 515.943 251.500 511.258 243.357 C 505.909 234.060, 503.620 231.973, 502.030 234.944 M 531.143 233.869 C 529.603 234.869, 530.307 235.438, 534.250 236.381 L 537 237.038 537 246.397 C 537 253.233, 537.380 256.071, 538.411 256.926 C 540.612 258.753, 541.238 256.783, 541.786 246.305 L 542.278 236.894 545.178 236.314 C 546.773 235.995, 547.912 235.232, 547.709 234.617 C 547.257 233.252, 533.079 232.611, 531.143 233.869 M 552.688 233.646 C 552.309 234.024, 552 239.385, 552 245.560 C 552 254.268, 552.314 256.907, 553.402 257.324 C 555.521 258.137, 556 257.125, 556 251.833 L 556 247 560.870 247 L 565.740 247 566.253 251.549 C 566.795 256.359, 567.518 257.816, 568.750 256.583 C 569.702 255.631, 569.667 234.333, 568.712 233.378 C 567.568 232.235, 566.870 233.551, 566.278 237.967 L 565.723 242.098 561.112 241.799 C 556.562 241.504, 556.493 241.447, 556 237.578 C 555.521 233.818, 554.146 232.187, 552.688 233.646 M 576 245.601 L 576 258.290 583.118 257.693 C 587.034 257.365, 590.484 256.850, 590.785 256.548 C 591.820 255.513, 590.092 254.765, 585.464 254.243 C 582.916 253.956, 580.609 253.144, 580.338 252.439 C 579.420 250.046, 581.900 247.241, 585.537 246.559 C 589.909 245.739, 589.624 243.918, 584.934 242.703 C 580.870 241.650, 579.788 240.265, 581.105 237.804 C 581.818 236.471, 583.259 236, 586.619 236 C 589.811 236, 591.043 235.627, 590.753 234.750 C 590.487 233.944, 587.795 233.396, 583.170 233.206 L 576 232.912 576 245.601 M 607.020 234.284 C 603.588 236.021, 602.032 239.580, 602.015 245.734 C 602.002 250.117, 602.475 251.500, 604.919 254.234 C 607.527 257.152, 608.389 257.492, 613.002 257.425 C 619.127 257.336, 620.122 256.244, 619.761 250 C 619.521 245.860, 619.270 245.474, 616.628 245.172 C 612.960 244.753, 610.551 246.808, 613.734 247.641 C 616.026 248.240, 617.583 251.247, 616.506 252.991 C 616.163 253.546, 614.591 254, 613.014 254 C 609.166 254, 606 249.927, 606 244.976 C 606 239.565, 608.442 237.174, 615 236.163 C 620.369 235.336, 620.433 235.288, 617.685 234.158 C 614.048 232.662, 610.134 232.709, 607.020 234.284 M 628.241 235.250 C 623.673 240.127, 622.994 245.290, 626.082 251.669 C 627.728 255.070, 628.952 256.205, 631.938 257.099 C 641.621 260.001, 648.182 249.550, 643.585 238.548 C 641.877 234.462, 639.415 233, 634.240 233 C 631.496 233, 629.727 233.663, 628.241 235.250 M 484.315 237.074 C 481.428 238.149, 480 241.008, 480 245.712 C 480 250.745, 482.318 254, 485.902 254 C 491.197 254, 493.991 248.120, 491.800 241.586 C 490.386 237.368, 487.766 235.789, 484.315 237.074 M 631.873 237.376 C 627.489 239.562, 627.646 250.670, 632.095 253.051 C 637.120 255.740, 640.958 252.024, 640.985 244.441 C 641.008 238.048, 636.906 234.867, 631.873 237.376 M 291 240 C 291 242.995, 291.151 243.108, 294.750 242.810 C 298.001 242.541, 298.500 242.167, 298.500 240 C 298.500 237.833, 298.001 237.459, 294.750 237.190 C 291.151 236.892, 291 237.005, 291 240 M 313.630 241.250 C 312.121 246.880, 313.386 249.312, 316.721 247.194 C 317.661 246.596, 317.680 245.567, 316.803 242.709 C 315.502 238.471, 314.499 238.009, 313.630 241.250" stroke="none" fill="#fffcfc" fill-rule="evenodd"/><path d="" stroke="none" fill="#fcfcfc" fill-rule="evenodd"/></svg>